<svg width="209" height="54" viewBox="0 0 209 54" fill="none" xmlns="http://www.w3.org/2000/svg">
<g clip-path="url(#clip0_279_8917)">
<path d="M103.453 20.8018C102.94 20.5662 102.502 20.2424 102.145 19.8449C101.789 19.4474 101.536 19.0057 101.388 18.5199L102.346 18.1666C102.576 18.8364 102.933 19.3443 103.423 19.6903C103.913 20.0363 104.493 20.2129 105.169 20.2129C105.807 20.2129 106.327 20.0657 106.721 19.7639C107.115 19.4621 107.315 19.072 107.315 18.5788C107.315 18.0856 107.182 17.7176 106.914 17.4599C106.647 17.1949 106.268 16.9962 105.77 16.849L103.988 16.319C103.282 16.1202 102.747 15.7816 102.368 15.3032C101.989 14.8247 101.804 14.2873 101.804 13.6764C101.804 13.1538 101.93 12.6974 102.19 12.2999C102.45 11.9024 102.799 11.5859 103.245 11.3577C103.69 11.1295 104.203 11.0117 104.768 11.0117C105.332 11.0117 105.897 11.1221 106.372 11.3356C106.847 11.5491 107.249 11.8361 107.575 12.1895C107.902 12.5428 108.14 12.9329 108.281 13.3672L107.353 13.7353C107.137 13.1538 106.81 12.7121 106.357 12.4177C105.911 12.1159 105.384 11.9686 104.782 11.9686C104.218 11.9686 103.75 12.1159 103.401 12.4103C103.044 12.7047 102.866 13.1022 102.866 13.6028C102.866 14.0076 102.992 14.3683 103.252 14.6922C103.512 15.0161 103.906 15.2516 104.441 15.4136L106.015 15.8773C106.795 16.1055 107.39 16.4367 107.783 16.8637C108.185 17.298 108.385 17.8353 108.385 18.4905C108.385 19.0204 108.251 19.4842 107.977 19.8817C107.702 20.2792 107.33 20.5957 106.847 20.8239C106.365 21.0521 105.807 21.1698 105.176 21.1698C104.545 21.1698 103.973 21.0521 103.46 20.8165L103.453 20.8018Z" fill="#182F3D"/>
<path d="M110.004 23.8715C109.856 23.8494 109.715 23.8126 109.574 23.7611V22.8336C109.663 22.841 109.774 22.8557 109.915 22.8778C110.049 22.8998 110.19 22.9072 110.331 22.9072C110.77 22.9072 111.096 22.8189 111.327 22.6348C111.557 22.4508 111.787 22.1122 112.01 21.597L112.263 20.986L109.41 13.9121H110.487L112.82 19.7494L115.152 13.9121H116.259L112.998 21.884C112.857 22.23 112.679 22.5539 112.456 22.863C112.24 23.1722 111.965 23.4225 111.639 23.6065C111.312 23.7979 110.911 23.8936 110.443 23.8936C110.302 23.8936 110.153 23.8788 110.012 23.8641L110.004 23.8715Z" fill="#182F3D"/>
<path d="M118.109 20.6403C117.596 20.2943 117.218 19.8306 116.987 19.2417L117.827 18.8442C118.027 19.2785 118.317 19.6171 118.688 19.8747C119.06 20.1324 119.461 20.2575 119.907 20.2575C120.352 20.2575 120.694 20.1544 120.984 19.9483C121.273 19.7422 121.422 19.4699 121.422 19.1386C121.422 18.8957 121.348 18.697 121.207 18.5498C121.065 18.4025 120.902 18.2921 120.716 18.2112C120.531 18.1302 120.367 18.0713 120.226 18.0419L119.201 17.7548C118.547 17.5708 118.072 17.3131 117.775 16.9745C117.485 16.6359 117.336 16.2531 117.336 15.8115C117.336 15.3993 117.44 15.0386 117.656 14.7294C117.871 14.4203 118.154 14.1847 118.525 14.0154C118.889 13.8461 119.29 13.7651 119.736 13.7651C120.337 13.7651 120.887 13.9197 121.377 14.2362C121.868 14.5454 122.217 14.9797 122.425 15.5391L121.571 15.9366C121.392 15.5391 121.14 15.23 120.805 15.0091C120.471 14.7883 120.1 14.6705 119.691 14.6705C119.283 14.6705 118.971 14.7736 118.733 14.9723C118.495 15.1711 118.376 15.4287 118.376 15.7379C118.376 15.9734 118.436 16.1648 118.562 16.3047C118.688 16.4445 118.829 16.5476 118.993 16.6212C119.156 16.6948 119.305 16.7463 119.424 16.7758L120.612 17.1217C121.192 17.291 121.637 17.5487 121.964 17.902C122.291 18.2553 122.447 18.6675 122.447 19.146C122.447 19.5361 122.336 19.8821 122.12 20.1913C121.905 20.5004 121.6 20.736 121.221 20.9126C120.843 21.0819 120.397 21.1703 119.899 21.1703C119.216 21.1703 118.614 21.001 118.102 20.655L118.109 20.6403Z" fill="#182F3D"/>
<path d="M125.462 20.5225C125.113 20.1545 124.942 19.6245 124.942 18.9399V14.9135H123.62V13.9271H123.954C124.259 13.9271 124.497 13.8314 124.675 13.6327C124.853 13.4339 124.942 13.1836 124.942 12.8892V12.293H125.938V13.9271H127.513V14.9135H125.938V18.9399C125.938 19.2932 126.019 19.5803 126.19 19.8085C126.361 20.0367 126.666 20.1545 127.111 20.1545C127.186 20.1545 127.267 20.1545 127.364 20.1398C127.461 20.1324 127.542 20.125 127.616 20.1103V20.9936C127.513 21.0231 127.386 21.0378 127.26 21.0525C127.126 21.0672 127.022 21.0746 126.941 21.0746C126.302 21.0746 125.811 20.8906 125.462 20.5225Z" fill="#182F3D"/>
<path d="M130.551 20.6769C130.016 20.353 129.592 19.9113 129.28 19.3519C128.968 18.7851 128.812 18.1521 128.812 17.4381C128.812 16.724 128.961 16.091 129.266 15.5463C129.57 15.0016 129.979 14.5599 130.499 14.2434C131.019 13.9269 131.605 13.7649 132.252 13.7649C132.764 13.7649 133.225 13.8606 133.633 14.0446C134.035 14.236 134.384 14.4863 134.666 14.8102C134.948 15.1341 135.164 15.4948 135.32 15.8922C135.468 16.2897 135.542 16.702 135.542 17.1289C135.542 17.2172 135.542 17.3129 135.528 17.4233C135.513 17.5337 135.505 17.6442 135.49 17.7619H129.867C129.882 18.2698 130.008 18.7115 130.246 19.0722C130.484 19.4402 130.788 19.7199 131.16 19.9261C131.531 20.1248 131.932 20.2279 132.356 20.2279C132.883 20.2279 133.321 20.1027 133.678 19.8598C134.035 19.6169 134.324 19.3077 134.547 18.9397L135.401 19.3887C135.26 19.7052 135.045 19.9997 134.748 20.2647C134.451 20.5297 134.109 20.7505 133.7 20.9124C133.299 21.0744 132.846 21.1553 132.363 21.1553C131.695 21.1553 131.093 20.9934 130.558 20.6769H130.551ZM131.16 14.9574C130.818 15.1341 130.543 15.3843 130.313 15.7009C130.083 16.0247 129.949 16.4002 129.89 16.8418H134.458C134.451 16.4222 134.347 16.0468 134.146 15.7229C133.945 15.3991 133.678 15.1488 133.344 14.9648C133.009 14.7807 132.645 14.6851 132.244 14.6851C131.843 14.6851 131.487 14.7734 131.152 14.95L131.16 14.9574ZM130.157 10.5776H131.531L132.69 12.5577H131.68L130.164 10.5776H130.157Z" fill="#182F3D"/>
<path d="M137.303 13.9198H138.298V14.7883C138.514 14.4645 138.796 14.2068 139.145 14.0302C139.494 13.8461 139.873 13.7578 140.281 13.7578C140.772 13.7578 141.217 13.8829 141.626 14.1259C142.035 14.3688 142.346 14.7 142.569 15.1049C142.785 14.6632 143.089 14.332 143.498 14.1038C143.906 13.8756 144.345 13.7578 144.82 13.7578C145.295 13.7578 145.741 13.8756 146.15 14.1038C146.551 14.332 146.878 14.6485 147.123 15.046C147.368 15.4435 147.487 15.8999 147.487 16.4004V20.9936H146.491V16.7832C146.491 16.1428 146.321 15.6422 145.986 15.2815C145.652 14.9282 145.221 14.7442 144.709 14.7442C144.196 14.7442 143.765 14.9282 143.416 15.2889C143.067 15.6496 142.896 16.1501 142.896 16.7832V20.9936H141.901V16.7832C141.901 16.1428 141.73 15.6422 141.396 15.2815C141.061 14.9282 140.631 14.7442 140.118 14.7442C139.605 14.7442 139.175 14.9282 138.826 15.2889C138.476 15.6496 138.306 16.1501 138.306 16.7832V20.9936H137.31V13.9198H137.303Z" fill="#182F3D"/>
<path d="M150.838 20.6771C150.303 20.3532 149.88 19.9115 149.568 19.3521C149.256 18.7853 149.1 18.1523 149.1 17.4383C149.1 16.7242 149.248 16.0912 149.553 15.5465C149.857 15.0018 150.266 14.5601 150.786 14.2436C151.306 13.9271 151.893 13.7651 152.539 13.7651C153.051 13.7651 153.512 13.8608 153.921 14.0449C154.322 14.2362 154.671 14.4865 154.953 14.8104C155.235 15.1343 155.451 15.495 155.607 15.8925C155.755 16.2899 155.83 16.7022 155.83 17.1291C155.83 17.2174 155.83 17.3131 155.815 17.4235C155.8 17.5339 155.792 17.6444 155.778 17.7621H150.154C150.169 18.27 150.296 18.7117 150.533 19.0724C150.771 19.4404 151.076 19.7202 151.447 19.9263C151.818 20.125 152.219 20.2281 152.643 20.2281C153.17 20.2281 153.609 20.1029 153.965 19.86C154.322 19.6171 154.611 19.3079 154.834 18.9399L155.688 19.3889C155.547 19.7054 155.332 19.9999 155.035 20.2649C154.738 20.5299 154.396 20.7507 153.987 20.9126C153.586 21.0746 153.133 21.1555 152.65 21.1555C151.982 21.1555 151.38 20.9936 150.845 20.6771H150.838ZM151.447 14.9576C151.105 15.1343 150.83 15.3845 150.6 15.7011C150.37 16.025 150.236 16.4004 150.177 16.842H154.745C154.738 16.4224 154.634 16.047 154.433 15.7232C154.232 15.3993 153.965 15.149 153.631 14.965C153.297 14.7809 152.933 14.6853 152.531 14.6853C152.13 14.6853 151.774 14.7736 151.439 14.9503L151.447 14.9576Z" fill="#182F3D"/>
<path d="M103.111 36.5101C102.576 36.1862 102.16 35.7519 101.848 35.1925C101.544 34.6331 101.388 34 101.388 33.3007C101.388 32.6014 101.544 31.9537 101.848 31.4016C102.153 30.8495 102.569 30.4079 103.104 30.0914C103.631 29.7675 104.233 29.6129 104.909 29.6129C105.466 29.6129 105.971 29.7233 106.417 29.9441C106.862 30.165 107.226 30.4668 107.523 30.8422V26.8525H108.526V36.8414H107.523V35.6931C107.256 36.1053 106.892 36.4291 106.431 36.6573C105.971 36.8855 105.466 37.0033 104.916 37.0033C104.248 37.0033 103.653 36.8414 103.118 36.5248L103.111 36.5101ZM106.261 35.6489C106.647 35.4133 106.951 35.0895 107.182 34.6772C107.412 34.265 107.523 33.8086 107.523 33.3007C107.523 32.7928 107.412 32.3291 107.182 31.9242C106.951 31.5194 106.647 31.1881 106.261 30.9526C105.874 30.717 105.443 30.5993 104.961 30.5993C104.478 30.5993 104.062 30.717 103.683 30.9526C103.304 31.1881 103 31.512 102.784 31.9169C102.569 32.3217 102.457 32.7855 102.457 33.3007C102.457 33.816 102.569 34.2724 102.784 34.6772C103 35.0821 103.297 35.4133 103.676 35.6489C104.054 35.8844 104.478 36.0022 104.961 36.0022C105.443 36.0022 105.874 35.8844 106.261 35.6489Z" fill="#182F3D"/>
<path d="M110.636 27H111.699L111.535 29.8781H110.8L110.629 27H110.636Z" fill="#182F3D"/>
<path d="M113.83 27H114.825V28.4501H113.83V27ZM113.83 29.7604H114.825V36.8342H113.83V29.7604Z" fill="#182F3D"/>
<path d="M116.883 29.7601H117.878V30.6287C118.094 30.3122 118.376 30.0619 118.732 29.8779C119.089 29.6938 119.49 29.5981 119.928 29.5981C120.433 29.5981 120.887 29.7159 121.295 29.9441C121.704 30.1723 122.016 30.4888 122.253 30.8863C122.491 31.2838 122.61 31.7402 122.61 32.2407V36.834H121.607V32.6235C121.607 31.9831 121.436 31.4826 121.095 31.1219C120.753 30.7685 120.307 30.5845 119.758 30.5845C119.208 30.5845 118.77 30.7685 118.413 31.1292C118.056 31.4899 117.878 31.9905 117.878 32.6235V36.834H116.883V29.7601Z" fill="#182F3D"/>
<path d="M125.248 30.7539H123.821V29.7675H125.248V29.1345C125.248 28.6413 125.359 28.2291 125.582 27.8831C125.805 27.5445 126.094 27.2869 126.458 27.1102C126.822 26.9335 127.216 26.8452 127.632 26.8452C127.721 26.8452 127.825 26.8452 127.937 26.8673C128.055 26.882 128.145 26.8967 128.219 26.9115V27.8095C128.159 27.7948 128.07 27.7801 127.966 27.7801C127.862 27.7801 127.781 27.7801 127.743 27.7801C127.32 27.7801 126.963 27.8831 126.681 28.0819C126.399 28.2806 126.258 28.6339 126.258 29.1345V29.7675H128.003V30.7539H126.258V36.8414H125.262V30.7539H125.248Z" fill="#182F3D"/>
<path d="M130.855 36.5105C130.306 36.1866 129.867 35.7523 129.54 35.1929C129.214 34.6335 129.058 34.0004 129.058 33.2864C129.058 32.5724 129.214 31.9541 129.54 31.402C129.867 30.8499 130.291 30.4083 130.84 30.0917C131.39 29.7752 132.007 29.6133 132.697 29.6133C133.388 29.6133 134.012 29.7679 134.554 30.0917C135.104 30.4083 135.535 30.8426 135.847 31.3946C136.159 31.9467 136.322 32.5797 136.322 33.2938C136.322 34.0078 136.159 34.6555 135.832 35.215C135.505 35.7744 135.067 36.2087 134.517 36.5252C133.968 36.8417 133.366 37.0037 132.697 37.0037C132.029 37.0037 131.412 36.8417 130.863 36.5252L130.855 36.5105ZM133.99 35.6493C134.376 35.4137 134.681 35.0898 134.911 34.6703C135.134 34.258 135.253 33.7943 135.253 33.2864C135.253 32.7785 135.141 32.3148 134.911 31.9099C134.681 31.505 134.376 31.1812 133.99 30.9456C133.604 30.7101 133.173 30.5923 132.69 30.5923C132.207 30.5923 131.776 30.7101 131.39 30.9456C131.004 31.1812 130.692 31.505 130.462 31.9099C130.231 32.3148 130.112 32.7711 130.112 33.2864C130.112 33.8017 130.231 34.258 130.462 34.6703C130.692 35.0825 131.004 35.4064 131.39 35.6493C131.776 35.8848 132.207 36.0026 132.69 36.0026C133.173 36.0026 133.604 35.8848 133.99 35.6493Z" fill="#182F3D"/>
<path d="M138.076 29.7602H139.071V30.5258C139.257 30.2534 139.509 30.04 139.821 29.8927C140.133 29.7455 140.512 29.6646 140.943 29.6646H141.396V30.6583H140.772C140.26 30.6583 139.844 30.8129 139.532 31.1367C139.22 31.4533 139.064 31.9023 139.064 32.4838V36.8415H138.068V29.7676L138.076 29.7602Z" fill="#182F3D"/>
<path d="M142.577 29.7601H143.573V30.6287C143.788 30.3048 144.07 30.0472 144.419 29.8705C144.768 29.6865 145.147 29.5981 145.556 29.5981C146.046 29.5981 146.492 29.7233 146.9 29.9662C147.309 30.2091 147.621 30.5403 147.844 30.9452C148.059 30.5035 148.364 30.1723 148.772 29.9441C149.181 29.7159 149.619 29.5981 150.094 29.5981C150.57 29.5981 151.016 29.7159 151.424 29.9441C151.825 30.1723 152.152 30.4888 152.397 30.8863C152.642 31.2838 152.761 31.7402 152.761 32.2407V36.834H151.766V32.6235C151.766 31.9831 151.595 31.4826 151.261 31.1219C150.926 30.7685 150.496 30.5845 149.983 30.5845C149.471 30.5845 149.04 30.7685 148.691 31.1292C148.341 31.4899 148.171 31.9905 148.171 32.6235V36.834H147.175V32.6235C147.175 31.9831 147.004 31.4826 146.67 31.1219C146.336 30.7685 145.905 30.5845 145.392 30.5845C144.88 30.5845 144.449 30.7685 144.1 31.1292C143.751 31.4899 143.58 31.9905 143.58 32.6235V36.834H142.585V29.7601H142.577Z" fill="#182F3D"/>
<path d="M155.525 36.7387C155.168 36.5694 154.893 36.3339 154.685 36.0321C154.485 35.7303 154.381 35.3917 154.381 35.0015C154.381 34.4568 154.567 33.9784 154.931 33.5735C155.295 33.1687 155.874 32.8963 156.661 32.7712L159.246 32.3516V31.9835C159.246 31.564 159.09 31.218 158.778 30.953C158.466 30.688 158.065 30.5555 157.568 30.5555C157.137 30.5555 156.75 30.6659 156.424 30.8794C156.097 31.0929 155.852 31.3726 155.688 31.7186L154.782 31.2327C154.916 30.9309 155.124 30.6586 155.413 30.4157C155.703 30.1727 156.03 29.974 156.409 29.8268C156.788 29.6796 157.166 29.606 157.568 29.606C158.095 29.606 158.556 29.709 158.957 29.9078C159.358 30.1065 159.677 30.3862 159.9 30.7469C160.123 31.1076 160.242 31.5124 160.242 31.9835V36.8418H159.246V35.826C159.016 36.1719 158.682 36.4516 158.236 36.6725C157.79 36.8933 157.293 37.0037 156.743 37.0037C156.29 37.0037 155.889 36.9154 155.532 36.7461L155.525 36.7387ZM155.822 35.7671C156.074 35.9879 156.401 36.0983 156.802 36.0983C157.293 36.0983 157.716 35.9953 158.08 35.7892C158.444 35.5831 158.726 35.3033 158.934 34.95C159.135 34.5967 159.239 34.2066 159.239 33.7723V33.2423L156.892 33.625C156.379 33.7134 156.008 33.8753 155.777 34.1109C155.555 34.3464 155.436 34.6335 155.436 34.9574C155.436 35.2813 155.562 35.5389 155.814 35.7597L155.822 35.7671Z" fill="#182F3D"/>
<path d="M163.406 36.3629C163.057 35.9948 162.886 35.4648 162.886 34.7802V30.7538H161.563V29.7674H161.898C162.202 29.7674 162.44 29.6717 162.618 29.473C162.797 29.2742 162.886 29.024 162.886 28.7295V28.1333H163.881V29.7674H165.456V30.7538H163.881V34.7802C163.881 35.1336 163.963 35.4207 164.134 35.6488C164.304 35.877 164.609 35.9948 165.055 35.9948C165.129 35.9948 165.211 35.9948 165.307 35.9801C165.404 35.9727 165.486 35.9654 165.56 35.9506V36.834C165.456 36.8634 165.33 36.8781 165.203 36.8928C165.07 36.9076 164.966 36.9149 164.884 36.9149C164.245 36.9149 163.755 36.7309 163.406 36.3629Z" fill="#182F3D"/>
<path d="M167.328 27H168.324V28.4501H167.328V27ZM167.328 29.7604H168.324V36.8342H167.328V29.7604Z" fill="#182F3D"/>
<path d="M171.882 36.5105C171.332 36.1866 170.894 35.7523 170.567 35.1929C170.24 34.6335 170.084 34.0004 170.084 33.2864C170.084 32.5724 170.24 31.9541 170.567 31.402C170.894 30.8499 171.317 30.4083 171.867 30.0917C172.416 29.7752 173.033 29.6133 173.724 29.6133C174.415 29.6133 175.039 29.7679 175.581 30.0917C176.131 30.4083 176.561 30.8426 176.873 31.3946C177.185 31.9467 177.349 32.5797 177.349 33.2938C177.349 34.0078 177.185 34.6555 176.859 35.215C176.532 35.7744 176.093 36.2087 175.544 36.5252C174.994 36.8417 174.392 37.0037 173.724 37.0037C173.055 37.0037 172.439 36.8417 171.889 36.5252L171.882 36.5105ZM175.016 35.6493C175.403 35.4137 175.707 35.0898 175.937 34.6703C176.16 34.258 176.279 33.7943 176.279 33.2864C176.279 32.7785 176.168 32.3148 175.937 31.9099C175.707 31.505 175.403 31.1812 175.016 30.9456C174.63 30.7101 174.199 30.5923 173.716 30.5923C173.234 30.5923 172.803 30.7101 172.416 30.9456C172.03 31.1812 171.718 31.505 171.488 31.9099C171.258 32.3148 171.139 32.7711 171.139 33.2864C171.139 33.8017 171.258 34.258 171.488 34.6703C171.718 35.0825 172.03 35.4064 172.416 35.6493C172.803 35.8848 173.234 36.0026 173.716 36.0026C174.199 36.0026 174.63 35.8848 175.016 35.6493Z" fill="#182F3D"/>
<path d="M179.102 29.7601H180.097V30.6287C180.312 30.3122 180.595 30.0619 180.951 29.8779C181.308 29.6938 181.709 29.5981 182.147 29.5981C182.652 29.5981 183.105 29.7159 183.514 29.9441C183.922 30.1723 184.234 30.4888 184.472 30.8863C184.71 31.2838 184.829 31.7402 184.829 32.2407V36.834H183.826V32.6235C183.826 31.9831 183.655 31.4826 183.313 31.1219C182.972 30.7685 182.526 30.5845 181.976 30.5845C181.427 30.5845 180.988 30.7685 180.632 31.1292C180.275 31.4899 180.097 31.9905 180.097 32.6235V36.834H179.102V29.7601Z" fill="#182F3D"/>
<path d="M102.361 52.3214C101.848 51.9755 101.47 51.5117 101.239 50.9228L102.079 50.5253C102.279 50.9596 102.569 51.2983 102.94 51.5559C103.312 51.8135 103.713 51.9387 104.159 51.9387C104.604 51.9387 104.946 51.8356 105.236 51.6295C105.525 51.4234 105.674 51.151 105.674 50.8198C105.674 50.5769 105.6 50.3781 105.458 50.2309C105.317 50.0837 105.154 49.9733 104.968 49.8923C104.783 49.8113 104.619 49.7525 104.478 49.723L103.453 49.4359C102.799 49.2519 102.324 48.9943 102.027 48.6557C101.737 48.3171 101.588 47.9343 101.588 47.4926C101.588 47.0804 101.692 46.7197 101.908 46.4106C102.123 46.1014 102.405 45.8659 102.777 45.6966C103.141 45.5273 103.542 45.4463 103.988 45.4463C104.589 45.4463 105.139 45.6009 105.629 45.9174C106.12 46.2266 106.469 46.6608 106.677 47.2203L105.822 47.6178C105.644 47.2203 105.392 46.9111 105.057 46.6903C104.723 46.4695 104.352 46.3517 103.943 46.3517C103.535 46.3517 103.223 46.4547 102.985 46.6535C102.747 46.8522 102.628 47.1099 102.628 47.419C102.628 47.6546 102.688 47.846 102.814 47.9858C102.94 48.1257 103.081 48.2287 103.245 48.3023C103.408 48.376 103.557 48.4275 103.676 48.4569L104.864 48.8029C105.444 48.9722 105.889 49.2298 106.216 49.5831C106.543 49.9365 106.699 50.3487 106.699 50.8272C106.699 51.2173 106.588 51.5632 106.372 51.8724C106.157 52.1816 105.852 52.4171 105.473 52.5938C105.095 52.7631 104.649 52.8514 104.151 52.8514C103.468 52.8514 102.866 52.6821 102.353 52.3361L102.361 52.3214Z" fill="#182F3D"/>
<path d="M109.633 52.4836C109.225 52.2481 108.905 51.9242 108.667 51.5046C108.43 51.085 108.318 50.6066 108.318 50.0619V45.6011H109.314V49.9441C109.314 50.5182 109.485 50.9746 109.834 51.3206C110.183 51.6665 110.621 51.8432 111.163 51.8432C111.706 51.8432 112.166 51.6592 112.515 51.2985C112.864 50.9378 113.043 50.4373 113.043 49.8042V45.5938H114.046V52.6676H113.043V51.799C112.827 52.1156 112.545 52.3658 112.188 52.5499C111.832 52.7339 111.431 52.8296 110.993 52.8296C110.495 52.8296 110.042 52.7118 109.633 52.4836Z" fill="#182F3D"/>
<path d="M116.095 45.6011H117.091V46.3666C117.276 46.0942 117.529 45.8808 117.841 45.7336C118.153 45.5863 118.532 45.5054 118.963 45.5054H119.416V46.4991H118.792C118.279 46.4991 117.863 46.6537 117.551 46.9776C117.239 47.2941 117.083 47.7431 117.083 48.3246V52.6823H116.088V45.6084L116.095 45.6011Z" fill="#182F3D"/>
<path d="M122.862 42.686H123.858V52.6749H122.862V42.686Z" fill="#182F3D"/>
<path d="M126.762 52.5791C126.406 52.4098 126.131 52.1742 125.923 51.8724C125.722 51.5706 125.618 51.232 125.618 50.8419C125.618 50.2972 125.804 49.8187 126.168 49.4138C126.532 49.009 127.111 48.7366 127.899 48.6115L130.484 48.1919V47.8239C130.484 47.4043 130.328 47.0583 130.016 46.7933C129.704 46.5283 129.303 46.3959 128.805 46.3959C128.374 46.3959 127.988 46.5063 127.661 46.7197C127.334 46.9332 127.089 47.2129 126.926 47.5589L126.019 47.0731C126.153 46.7713 126.361 46.4989 126.651 46.256C126.94 46.0131 127.267 45.8143 127.646 45.6671C128.025 45.5199 128.404 45.4463 128.805 45.4463C129.332 45.4463 129.793 45.5493 130.194 45.7481C130.595 45.9468 130.914 46.2266 131.137 46.5872C131.36 46.9479 131.479 47.3528 131.479 47.8239V52.6821H130.484V51.6663C130.253 52.0123 129.919 52.292 129.473 52.5128C129.028 52.7336 128.53 52.8441 127.98 52.8441C127.527 52.8441 127.126 52.7557 126.77 52.5864L126.762 52.5791ZM127.059 51.6074C127.312 51.8282 127.639 51.9387 128.04 51.9387C128.53 51.9387 128.953 51.8356 129.317 51.6295C129.681 51.4234 129.964 51.1437 130.172 50.7903C130.372 50.437 130.476 50.0469 130.476 49.6126V49.0826L128.129 49.4654C127.616 49.5537 127.245 49.7156 127.015 49.9512C126.792 50.1867 126.673 50.4738 126.673 50.7977C126.673 51.1216 126.799 51.3792 127.052 51.6L127.059 51.6074Z" fill="#182F3D"/>
<path d="M137.89 52.4908C137.43 52.2626 137.066 51.9388 136.798 51.5265V52.6749H135.803V42.686H136.798V46.6757C137.088 46.3003 137.459 45.9985 137.905 45.7776C138.351 45.5568 138.848 45.4464 139.413 45.4464C140.089 45.4464 140.69 45.6083 141.218 45.9249C141.745 46.2414 142.161 46.683 142.473 47.2351C142.785 47.7872 142.934 48.4202 142.934 49.1342C142.934 49.8482 142.778 50.4666 142.473 51.026C142.169 51.5854 141.753 52.0271 141.218 52.3436C140.683 52.6601 140.089 52.8221 139.413 52.8221C138.863 52.8221 138.358 52.7043 137.897 52.4761L137.89 52.4908ZM140.638 51.4897C141.017 51.2542 141.314 50.9303 141.53 50.5181C141.745 50.1059 141.857 49.6495 141.857 49.1416C141.857 48.6337 141.745 48.1626 141.53 47.7577C141.314 47.3529 141.017 47.029 140.638 46.7934C140.26 46.5579 139.836 46.4401 139.353 46.4401C138.871 46.4401 138.44 46.5579 138.053 46.7934C137.667 47.029 137.363 47.3529 137.132 47.7651C136.902 48.1773 136.791 48.6337 136.791 49.1416C136.791 49.6495 136.902 50.1132 137.132 50.5181C137.363 50.9229 137.667 51.2542 138.053 51.4897C138.44 51.7253 138.871 51.8431 139.353 51.8431C139.836 51.8431 140.26 51.7253 140.638 51.4897Z" fill="#182F3D"/>
<path d="M144.68 42.8408H145.675V44.2909H144.68V42.8408ZM144.68 45.6012H145.675V52.6751H144.68V45.6012Z" fill="#182F3D"/>
<path d="M149.233 52.3513C148.683 52.0274 148.245 51.5931 147.918 51.0337C147.592 50.4743 147.436 49.8412 147.436 49.1272C147.436 48.4132 147.592 47.7949 147.918 47.2428C148.245 46.6907 148.669 46.2491 149.218 45.9326C149.768 45.616 150.385 45.4541 151.075 45.4541C151.766 45.4541 152.39 45.6087 152.932 45.9326C153.482 46.2491 153.913 46.6834 154.225 47.2355C154.537 47.7875 154.7 48.4206 154.7 49.1346C154.7 49.8486 154.537 50.4964 154.21 51.0558C153.883 51.6152 153.445 52.0495 152.895 52.366C152.346 52.6826 151.744 52.8445 151.075 52.8445C150.407 52.8445 149.79 52.6826 149.241 52.366L149.233 52.3513ZM152.368 51.4901C152.754 51.2545 153.059 50.9307 153.289 50.5111C153.512 50.0989 153.631 49.6351 153.631 49.1272C153.631 48.6193 153.519 48.1556 153.289 47.7507C153.059 47.3459 152.754 47.022 152.368 46.7864C151.982 46.5509 151.551 46.4331 151.068 46.4331C150.585 46.4331 150.154 46.5509 149.768 46.7864C149.382 47.022 149.07 47.3459 148.839 47.7507C148.609 48.1556 148.49 48.612 148.49 49.1272C148.49 49.6425 148.609 50.0989 148.839 50.5111C149.07 50.9233 149.382 51.2472 149.768 51.4901C150.154 51.7256 150.585 51.8434 151.068 51.8434C151.551 51.8434 151.982 51.7256 152.368 51.4901Z" fill="#182F3D"/>
<path d="M157.88 52.3509C157.345 52.0271 156.929 51.5928 156.617 51.0333C156.312 50.4739 156.156 49.8409 156.156 49.1416C156.156 48.4423 156.312 47.7945 156.617 47.2424C156.921 46.6904 157.337 46.2487 157.872 45.9322C158.4 45.6083 159.001 45.4537 159.677 45.4537C160.234 45.4537 160.739 45.5641 161.185 45.785C161.631 46.0058 161.995 46.3076 162.292 46.683V42.6934H163.295V52.6822H162.292V51.5339C162.025 51.9461 161.661 52.27 161.2 52.4982C160.739 52.7263 160.234 52.8441 159.685 52.8441C159.016 52.8441 158.422 52.6822 157.887 52.3657L157.88 52.3509ZM161.029 51.4897C161.415 51.2542 161.72 50.9303 161.95 50.5181C162.181 50.1058 162.292 49.6495 162.292 49.1416C162.292 48.6337 162.181 48.1699 161.95 47.7651C161.72 47.3602 161.415 47.029 161.029 46.7934C160.643 46.5579 160.212 46.4401 159.729 46.4401C159.246 46.4401 158.83 46.5579 158.452 46.7934C158.073 47.029 157.768 47.3528 157.553 47.7577C157.337 48.1625 157.226 48.6263 157.226 49.1416C157.226 49.6568 157.337 50.1132 157.553 50.5181C157.768 50.9229 158.065 51.2542 158.444 51.4897C158.823 51.7253 159.246 51.843 159.729 51.843C160.212 51.843 160.643 51.7253 161.029 51.4897Z" fill="#182F3D"/>
<path d="M165.337 42.8408H166.332V44.2909H165.337V42.8408ZM165.337 45.6012H166.332V52.6751H165.337V45.6012Z" fill="#182F3D"/>
<path d="M167.514 45.6011H168.635L170.804 51.3279L172.973 45.6011H174.102L171.295 52.675H170.299L167.514 45.6011Z" fill="#182F3D"/>
<path d="M176.591 52.3509C176.056 52.027 175.633 51.5854 175.321 51.0259C175.009 50.4591 174.853 49.8261 174.853 49.1121C174.853 48.3981 175.001 47.765 175.306 47.2203C175.61 46.6756 176.019 46.2339 176.539 45.9174C177.059 45.6009 177.646 45.439 178.292 45.439C178.804 45.439 179.265 45.5347 179.673 45.7187C180.075 45.9101 180.424 46.1603 180.706 46.4842C180.988 46.8081 181.204 47.1688 181.36 47.5663C181.508 47.9638 181.582 48.376 181.582 48.8029C181.582 48.8913 181.582 48.9869 181.568 49.0974C181.553 49.2078 181.545 49.3182 181.531 49.436H175.907C175.922 49.9439 176.048 50.3855 176.286 50.7462C176.524 51.1143 176.828 51.394 177.2 51.6001C177.571 51.7988 177.972 51.9019 178.396 51.9019C178.923 51.9019 179.361 51.7768 179.718 51.5338C180.075 51.2909 180.364 50.9818 180.587 50.6137L181.441 51.0627C181.3 51.3793 181.085 51.6737 180.788 51.9387C180.491 52.2037 180.149 52.4245 179.74 52.5865C179.339 52.7484 178.886 52.8294 178.403 52.8294C177.735 52.8294 177.133 52.6674 176.598 52.3509H176.591ZM177.2 46.6314C176.858 46.8081 176.583 47.0584 176.353 47.3749C176.123 47.6988 175.989 48.0742 175.93 48.5158H180.498C180.491 48.0963 180.387 47.7209 180.186 47.397C179.985 47.0731 179.718 46.8228 179.384 46.6388C179.049 46.4548 178.685 46.3591 178.284 46.3591C177.883 46.3591 177.527 46.4474 177.192 46.6241L177.2 46.6314Z" fill="#182F3D"/>
<path d="M183.336 45.6011H184.331V46.3666C184.517 46.0942 184.769 45.8808 185.081 45.7336C185.393 45.5863 185.772 45.5054 186.203 45.5054H186.656V46.4991H186.032C185.519 46.4991 185.103 46.6537 184.791 46.9776C184.479 47.2941 184.324 47.7431 184.324 48.3246V52.6823H183.328V45.6084L183.336 45.6011Z" fill="#182F3D"/>
<path d="M188.513 52.3214C188.001 51.9755 187.622 51.5117 187.392 50.9228L188.231 50.5253C188.432 50.9596 188.721 51.2983 189.093 51.5559C189.464 51.8135 189.865 51.9387 190.311 51.9387C190.757 51.9387 191.098 51.8356 191.388 51.6295C191.678 51.4234 191.826 51.151 191.826 50.8198C191.826 50.5769 191.752 50.3781 191.611 50.2309C191.47 50.0837 191.306 49.9733 191.121 49.8923C190.935 49.8113 190.771 49.7525 190.63 49.723L189.605 49.4359C188.952 49.2519 188.476 48.9943 188.179 48.6557C187.889 48.3171 187.741 47.9343 187.741 47.4926C187.741 47.0804 187.845 46.7197 188.06 46.4106C188.276 46.1014 188.558 45.8659 188.929 45.6966C189.293 45.5273 189.694 45.4463 190.14 45.4463C190.742 45.4463 191.291 45.6009 191.782 45.9174C192.272 46.2266 192.621 46.6608 192.829 47.2203L191.975 47.6178C191.797 47.2203 191.544 46.9111 191.21 46.6903C190.875 46.4695 190.504 46.3517 190.095 46.3517C189.687 46.3517 189.375 46.4547 189.137 46.6535C188.9 46.8522 188.781 47.1099 188.781 47.419C188.781 47.6546 188.84 47.846 188.966 47.9858C189.093 48.1257 189.234 48.2287 189.397 48.3023C189.561 48.376 189.709 48.4275 189.828 48.4569L191.017 48.8029C191.596 48.9722 192.042 49.2298 192.368 49.5831C192.695 49.9365 192.851 50.3487 192.851 50.8272C192.851 51.2173 192.74 51.5632 192.524 51.8724C192.309 52.1816 192.005 52.4171 191.626 52.5938C191.247 52.7631 190.801 52.8514 190.303 52.8514C189.62 52.8514 189.018 52.6821 188.506 52.3361L188.513 52.3214Z" fill="#182F3D"/>
<path d="M194.619 42.8408H195.615V44.2909H194.619V42.8408ZM194.619 45.6012H195.615V52.6751H194.619V45.6012Z" fill="#182F3D"/>
<path d="M198.92 52.2037C198.571 51.8356 198.4 51.3056 198.4 50.6211V46.5946H197.078V45.6083H197.412C197.717 45.6083 197.955 45.5126 198.133 45.3138C198.311 45.1151 198.4 44.8648 198.4 44.5704V43.9741H199.396V45.6083H200.97V46.5946H199.396V50.6211C199.396 50.9744 199.477 51.2615 199.648 51.4897C199.819 51.7178 200.124 51.8356 200.569 51.8356C200.644 51.8356 200.725 51.8356 200.822 51.8209C200.919 51.8135 201 51.8062 201.075 51.7915V52.6748C200.971 52.7042 200.844 52.7189 200.718 52.7337C200.584 52.7484 200.48 52.7557 200.399 52.7557C199.76 52.7557 199.269 52.5717 198.92 52.2037Z" fill="#182F3D"/>
<path d="M204.016 52.3512C203.481 52.0273 203.057 51.5856 202.745 51.0262C202.433 50.4594 202.277 49.8264 202.277 49.1124C202.277 48.3984 202.426 47.7653 202.73 47.2206C203.035 46.6759 203.444 46.2342 203.964 45.9177C204.484 45.6012 205.07 45.4392 205.717 45.4392C206.229 45.4392 206.69 45.5349 207.098 45.719C207.499 45.9103 207.849 46.1606 208.131 46.4845C208.413 46.8084 208.628 47.1691 208.784 47.5666C208.933 47.9641 209.007 48.3763 209.007 48.8032C209.007 48.8915 209.007 48.9872 208.992 49.0976C208.978 49.2081 208.97 49.3185 208.955 49.4363H203.332C203.347 49.9442 203.473 50.3858 203.711 50.7465C203.949 51.1145 204.253 51.3943 204.625 51.6004C204.996 51.7991 205.397 51.9022 205.821 51.9022C206.348 51.9022 206.786 51.777 207.143 51.5341C207.499 51.2912 207.789 50.9821 208.012 50.614L208.866 51.063C208.725 51.3795 208.51 51.674 208.212 51.939C207.915 52.204 207.574 52.4248 207.165 52.5867C206.764 52.7487 206.311 52.8296 205.828 52.8296C205.159 52.8296 204.558 52.6677 204.023 52.3512H204.016ZM204.625 46.6317C204.283 46.8084 204.008 47.0587 203.778 47.3752C203.548 47.6991 203.414 48.0745 203.354 48.5161H207.923C207.915 48.0966 207.811 47.7211 207.611 47.3973C207.41 47.0734 207.143 46.8231 206.809 46.6391C206.474 46.4551 206.11 46.3594 205.709 46.3594C205.308 46.3594 204.951 46.4477 204.617 46.6244L204.625 46.6317ZM206.303 42.252H207.678L206.162 44.2321H205.152L206.311 42.252H206.303Z" fill="#182F3D"/>
<path d="M88.0394 12.5215C88.0394 12.5215 87.9725 12.5877 87.9131 12.654C87.9279 12.654 87.9428 12.6687 87.9577 12.6761C87.9799 12.6393 87.9948 12.6025 88.0097 12.5656C88.0171 12.5509 88.0319 12.5362 88.0394 12.5215Z" fill="#86BC26"/>
<path d="M92.6521 17.652C92.6224 17.5784 92.5778 17.5048 92.5481 17.4312C92.2064 17.5931 91.8647 17.8139 91.5527 18.1231C91.5527 18.1231 91.9984 17.8654 92.6521 17.652Z" fill="#86BC26"/>
<path d="M90.2453 30.5186C91.4338 29.4586 92.3029 28.2809 92.86 26.9927C93.4171 25.7045 93.6919 24.3354 93.6919 22.9C93.6919 21.8989 93.5954 20.9567 93.4245 20.0734C93.3205 20.2059 93.2165 20.3384 93.0828 20.4562C92.3103 21.1407 90.8469 20.4194 90.1413 21.2364C90.1413 21.2364 88.9528 18.0712 92.132 16.6211C91.6715 15.8482 91.1069 15.1415 90.4458 14.4938C90.0744 14.9134 89.5322 15.2888 88.7225 15.5611L89.0567 15.7451C89.0567 15.7451 87.8385 16.0764 87.6751 16.7978C88.1059 18.4025 89.2945 19.3079 89.2945 19.3079C89.3836 19.3741 89.3984 19.4992 89.3316 19.5876C89.2647 19.6759 89.1385 19.6906 89.0493 19.6244C89.0493 19.6244 85.5506 16.9818 87.9648 12.6683C87.9499 12.6683 87.9351 12.6535 87.9202 12.6462C87.482 13.1026 86.2043 14.6484 86.8877 16.3708C86.8877 16.3708 85.0232 14.1037 86.6574 12.0647C84.8004 11.3212 82.6314 10.9458 80.1503 10.9458H62.1221V53.3228H80.1503C84.9341 53.3228 88.6779 52.1745 91.3743 49.8779C94.0708 47.5813 95.4227 44.4087 95.4227 40.3528C95.4227 38.4169 95.0365 36.5987 94.2714 34.891C93.5062 33.1833 92.1692 31.7258 90.2527 30.5112L90.2453 30.5186ZM83.2776 13.4927C83.2776 13.4927 83.5822 13.8828 84.0873 13.9049C84.5924 13.927 85.4318 14.273 85.6249 15.5022C85.7586 16.3487 86.3009 16.8567 86.3009 16.8567C86.3009 16.8567 84.4958 16.5917 83.5673 15.1268C83.5673 15.1268 83.7753 16.5769 85.7512 17.1879C85.7512 17.1879 84.2061 17.9387 83.2107 16.3414C82.2154 14.7441 83.2702 13.4927 83.2702 13.4927H83.2776ZM69.9291 17.5486H80.5515C82.1559 17.5486 83.441 17.9829 84.3993 18.8588C85.3575 19.7348 85.8329 20.9052 85.8329 22.3847C85.8329 23.8643 85.3575 25.0715 84.3993 25.999C83.441 26.9264 82.1634 27.3902 80.5515 27.3902H69.9291V17.5486ZM85.8032 44.8283C84.5998 45.9472 82.9805 46.5066 80.9526 46.5066H69.9291V34.1623H80.9526C82.9805 34.1623 84.5998 34.7217 85.8032 35.8406C87.0066 36.9594 87.6082 38.4684 87.6082 40.3602C87.6082 42.252 87.0066 43.7094 85.8032 44.8283Z" fill="#86BC26"/>
<path d="M94.4641 14.0301C95.66 15.3624 97.5245 15.3256 97.5245 15.3256C97.5245 15.3256 96.8857 14.8986 96.6108 14.0595C96.2097 12.8449 95.296 12.6388 94.7761 12.6977C94.2561 12.7566 93.8847 12.4106 93.8847 12.4106C93.8847 12.4106 93.0304 13.8534 94.3155 15.3109C95.6006 16.7683 97.0343 15.7452 97.0343 15.7452C94.9246 15.4581 94.4641 14.0227 94.4641 14.0227V14.0301Z" fill="#86BC26"/>
<path d="M85.8181 11.1668C85.365 9.67253 86.197 8.92908 86.197 8.92908C85.6621 10.1289 86.2564 11.3656 86.2564 11.3656C86.2564 11.3656 86.3455 10.8135 86.8358 10.3645C87.5341 9.72406 87.3929 9.05421 87.1998 8.73033C86.9992 8.40645 87.1181 8.04576 87.1181 8.04576C87.1181 8.04576 85.8776 7.92062 85.2833 9.21615C84.6891 10.519 85.8256 11.1594 85.8256 11.1594L85.8181 11.1668Z" fill="#86BC26"/>
<path d="M83.4858 7.30971C82.3493 6.57362 82.4904 5.62405 82.4904 5.62405C82.8098 6.71348 83.8944 7.20666 83.8944 7.20666C83.8944 7.20666 83.6418 6.78708 83.7161 6.22765C83.8201 5.41795 83.3521 5.0499 83.0401 4.94684C82.7281 4.84379 82.6018 4.54199 82.6018 4.54199C82.6018 4.54199 81.7105 5.13823 82.0447 6.32334C82.379 7.50846 83.4858 7.31707 83.4858 7.31707V7.30971Z" fill="#86BC26"/>
<path fill-rule="evenodd" clip-rule="evenodd" d="M88.1955 12.0945C88.1955 12.0945 88.1732 12.1166 88.1658 12.1313C86.0265 15.8192 89.0275 18.079 89.0275 18.079C89.1017 18.1379 89.2057 18.1231 89.2652 18.0495C89.3246 17.9759 89.3097 17.8729 89.2354 17.814C89.2354 17.814 88.2326 17.0484 87.8687 15.694C88.0098 15.0904 89.0349 14.8107 89.0349 14.8107L88.7526 14.6561C90.7137 13.9863 90.8771 12.6613 90.7731 11.7044C90.6691 10.7474 91.1816 10.6518 91.1816 10.6518C91.1816 10.6518 89.0126 9.68747 87.2447 11.4615C85.4768 13.2355 87.215 15.3407 87.215 15.3407C86.5539 13.6771 88.0618 12.2196 88.1955 12.0945Z" fill="#86BC26"/>
<path fill-rule="evenodd" clip-rule="evenodd" d="M90.9136 20.3755C90.9136 20.3755 89.8663 17.6004 92.741 16.4153L92.5701 16.2239C92.5701 16.2239 93.3872 15.7675 94.806 16.8349C94.806 16.8349 93.2461 16.6509 92.1096 17.7624C92.1096 17.7624 93.6992 16.8202 95.1849 17.2692C95.1849 17.2692 94.2935 17.7403 94.494 18.4249L94.2118 18.2187C94.2118 18.2187 94.0409 19.1462 93.3872 19.7204C92.741 20.2945 91.5005 19.6909 90.9062 20.3755H90.9136Z" fill="#86BC26"/>
<path fill-rule="evenodd" clip-rule="evenodd" d="M92.9198 6.67676C92.9198 6.67676 93.2987 7.02272 93.8112 6.96384C94.3238 6.90495 95.2374 7.11105 95.646 8.32561C95.9283 9.16476 96.5597 9.5917 96.5597 9.5917C96.5597 9.5917 94.6878 9.6285 93.4993 8.29617C93.4993 8.29617 93.9524 9.73156 96.0694 10.0186C96.0694 10.0186 94.6358 11.0418 93.3507 9.58434C92.0656 8.12687 92.9198 6.68412 92.9198 6.68412V6.67676Z" fill="#86BC26"/>
<path fill-rule="evenodd" clip-rule="evenodd" d="M96.3287 0.00024196C96.3287 0.00024196 96.2173 0.331485 96.403 0.633285C96.5887 0.935084 96.715 1.5534 96.0687 2.14228C95.6231 2.5545 95.5339 3.0624 95.5339 3.0624C95.5339 3.0624 94.9842 1.92145 95.4819 0.809947C95.4819 0.809947 94.7094 1.49452 95.1328 2.87838C95.1328 2.87838 94.0854 2.28214 94.6351 1.0823C95.1848 -0.117533 96.3287 0.00024196 96.3287 0.00024196Z" fill="#86BC26"/>
<path fill-rule="evenodd" clip-rule="evenodd" d="M89.8372 3.58483C89.8372 3.58483 89.7406 3.8719 89.904 4.1369C90.0675 4.40189 90.1789 4.93924 89.6143 5.45451C89.2207 5.8152 89.1464 6.25686 89.1464 6.25686C89.1464 6.25686 88.6635 5.26313 89.1018 4.29148C89.1018 4.29148 88.4258 4.88772 88.7972 6.09491C88.7972 6.09491 87.8836 5.57965 88.3664 4.52703C88.8492 3.48177 89.8446 3.58483 89.8446 3.58483H89.8372Z" fill="#86BC26"/>
<path fill-rule="evenodd" clip-rule="evenodd" d="M83.2109 13.8682C83.2109 13.8682 83.4709 14.1995 83.8943 14.2142C84.3177 14.2363 85.0308 14.5234 85.1868 15.5539C85.2982 16.2679 85.7587 16.6948 85.7587 16.6948C85.7587 16.6948 84.2434 16.474 83.456 15.2374C83.456 15.2374 83.6269 16.4593 85.2982 16.9672C85.2982 16.9672 83.9983 17.6002 83.1589 16.2532C82.3195 14.9061 83.2109 13.8535 83.2109 13.8535V13.8682Z" fill="#86BC26"/>
<path d="M12.9331 22.3996C15.2433 23.6436 17.8729 24.1589 19.2471 24.365C19.2471 24.365 19.2545 24.365 19.2619 24.365C18.378 23.3345 17.9323 22.142 17.9323 20.7949C17.9323 18.6014 18.7271 16.8863 20.3093 15.6496C21.8915 14.413 24.0977 13.7947 26.9278 13.7947C29.9734 13.7947 32.3356 14.5455 34.0144 16.0398C35.6857 17.534 36.5251 19.5951 36.5251 22.2082H42.2968C42.2968 19.8159 41.6506 17.615 40.3655 15.6055C39.0804 13.5886 37.2679 12.0133 34.928 10.865C32.5881 9.7167 29.9214 9.1499 26.9278 9.1499C22.5452 9.1499 18.9797 10.2614 16.2387 12.4844C13.4976 14.7074 12.1309 17.5193 12.1309 20.9127C12.1309 21.2734 12.1457 21.6267 12.1829 21.9727C12.4206 22.1273 12.6731 22.2671 12.9331 22.4144V22.3996Z" fill="#1D8BCE"/>
<path d="M18.1326 27.5819C27.2248 29.6503 38.8425 35.0459 36.822 49.1348C36.822 49.1348 27.2619 54.7365 16.7733 43.5478C19.2692 44.1146 22.3519 41.7591 22.3519 41.7591C16.491 41.9652 11.8038 36.9598 11.7072 36.8052C11.7072 36.8052 18.3109 60.7209 40.083 52.1601C40.083 52.1601 45.1936 40.6844 35.9083 32.4328C31.4588 28.4799 25.4791 26.6912 20.168 26.0066C19.7966 25.9625 19.4326 25.9183 19.0686 25.8815C16.0379 25.4472 7.78514 23.6364 7.15375 16.8496C7.15375 16.8496 4.35331 20.2945 6.32922 24.1517C6.32922 24.1517 1.02548 25.5576 0.0078125 30.4968C0.0078125 30.4968 6.51492 25.3147 18.1401 27.5966L18.1326 27.5819Z" fill="#1D8BCE"/>
<path d="M47.1914 30.8202C48.781 32.9328 51.8043 33.61 53.8619 32.1452C56.3281 30.3933 56.9372 30.0621 57.4795 30.224H57.4943C57.4943 30.224 54.3225 31.8802 54.3225 34.7363V53.7055H47.1988V30.8129L47.1914 30.8202Z" fill="#F1900B"/>
<path d="M46.9541 23.3783V11.2695H54.4046V27.0661C57.3982 27.0441 57.4279 28.8254 57.4279 28.8254C57.8958 29.0683 57.7176 29.7308 57.7176 29.7308C57.7176 29.7308 57.6879 29.1199 57.0936 29.0536C57.0936 29.0536 57.2273 28.3985 56.4473 27.9642C55.14 27.2355 53.7583 28.0231 53.7583 28.0231C53.7583 28.0231 53.9589 26.8012 52.8595 25.697C51.7602 24.6002 49.71 23.5991 48.3506 22.1564C48.3506 22.1564 47.3998 26.8527 49.7397 28.9506C52.0796 31.0484 53.9663 29.2671 53.9663 29.2671C53.9663 29.2671 51.9607 31.5931 49.1306 29.5762C47.3552 28.3102 47.0061 25.4099 46.9541 23.3709V23.3783Z" fill="#F1900B"/>
<path d="M31.1467 44.372C32.041 44.372 32.766 43.6535 32.766 42.7673C32.766 41.881 32.041 41.1626 31.1467 41.1626C30.2524 41.1626 29.5273 41.881 29.5273 42.7673C29.5273 43.6535 30.2524 44.372 31.1467 44.372Z" fill="#1D8BCE"/>
</g>
<defs>
<clipPath id="clip0_279_8917">
<rect width="209" height="54" fill="white"/>
</clipPath>
</defs>
</svg>
